HIERARCHY
ROOT Torso
{
    OFFSET 0 0 0
    CHANNELS 6 Xposition Yposition Zposition Zrotation Yrotation Xrotation
    JOINT LHip1 
    {   
        OFFSET 0 -0.06 0.01
        CHANNELS 3 Zrotation Yrotation Xrotation
        JOINT LHip2
        {
            OFFSET -0.055 -0.055 0
            CHANNELS 3 Zrotation Yrotation Xrotation
            JOINT LHip3
            {
                OFFSET 0 0 -0.01
                CHANNELS 3 Zrotation Yrotation Xrotation
                JOINT LThigh
                {
                    OFFSET 0.01 0 0
                    CHANNELS 3 Zrotation Yrotation Xrotation
                    JOINT LLeg
                    {
                        OFFSET -0.01 -0.120 -0.014
                        CHANNELS 3 Zrotation Yrotation Xrotation
                        JOINT LFoot
                        {
                            OFFSET 0 -0.1 0.01
                            CHANNELS 3 Zrotation Yrotation Xrotation
                            End Site
                            {
                                OFFSET 0 -0.035 -0.090
                            }
                        }
                    }
                }
            }
        }
    }
    JOINT RHip1 
    {   
        OFFSET 0 -0.06 0.01
        CHANNELS 3 Zrotation Yrotation Xrotation
        JOINT RHip2
        {
            OFFSET 0.055 -0.055 0
            CHANNELS 3 Zrotation Yrotation Xrotation
            JOINT RHip3
            {
                OFFSET 0 0 -0.01
                CHANNELS 3 Zrotation Yrotation Xrotation
                JOINT RThigh
                {
                    OFFSET 0.01 0 0
                    CHANNELS 3 Zrotation Yrotation Xrotation
                    JOINT RLeg
                    {
                        OFFSET -0.01 -0.120 -0.014
                        CHANNELS 3 Zrotation Yrotation Xrotation
                        JOINT RFoot
                        {
                            OFFSET 0 -0.1 0.01
                            CHANNELS 3 Zrotation Yrotation Xrotation
                            End Site
                            {
                                OFFSET 0 -0.035 -0.090
                            }
                        }
                    }
                }
            }
        }
    }
    JOINT Neck
    {
        OFFSET 0 0.04 0
        CHANNELS 3 Zrotation Yrotation Xrotation
        JOINT Head
        {
            OFFSET 0 0.1 0
            CHANNELS 3 Zrotation Yrotation Xrotation
            End Site 
            {
                OFFSET 0 0.07 0
            }
        }
    }
    JOINT LUpperarm
    {
        OFFSET -0.098 0.075 0
        CHANNELS 3 Zrotation Yrotation Xrotation
        JOINT LLowerarm
        {
            OFFSET 0 0.009 -0.09
            CHANNELS 3 Zrotation Yrotation Xrotation
            End Site
            {
                OFFSET 0 0 -0.105
            }
        }
    }
    JOINT RUpperarm
    {
        OFFSET 0.098 0.075 0
        CHANNELS 3 Zrotation Yrotation Xrotation
        JOINT RLowerarm
        {
            OFFSET 0 0.009 -0.09
            CHANNELS 3 Zrotation Yrotation Xrotation
            End Site
            {
                OFFSET 0 0 -0.105
            }
        }
    }
}
MOTION
Frames: 20
Frame Time: 0.008333
0 0 0 0.0 0.0 0.0 0.0 0.0 0.0 0.0 -1.1463856789800388 0.0 0.0 0.0 9.91776752005427 0.0 0.0 0.0 0.0 0.0 -24.724493 0.0 -9.795053 3.511275 0.0 0.0 0.0 0.0 10.257058071294836 0.0 0.0 0.0 14.924265836974978 0.0 0.0 0.0 0.0 0.0 -35.265557 0.0 3.171457 -1.954248 0.0 0.0 0.0 0.0 0.0 0.0 0.0 0.0 -90.0 0.0 0.0 0.0 0.0 0.0 -90.0 0.0 0.0 0.0 
0 0 0 0.0 0.0 0.0 0.0 0.0 0.0 0.0 -1.335303506391952 0.0 0.0 0.0 10.293312884243504 0.0 0.0 0.0 0.0 0.0 -25.698793 0.0 -10.23569 3.378208 0.0 0.0 0.0 0.0 9.896540623775621 0.0 0.0 0.0 13.842417311073172 0.0 0.0 0.0 0.0 0.0 -33.905061 0.0 3.192398 -3.235239 0.0 0.0 0.0 0.0 0.0 0.0 0.0 0.0 -90.0 0.0 0.0 0.0 0.0 0.0 -90.0 0.0 0.0 0.0 
0 0 0 0.0 0.0 0.0 0.0 0.0 0.0 0.0 -1.533549035839684 0.0 0.0 0.0 10.661566772712337 0.0 0.0 0.0 0.0 0.0 -26.659687 0.0 -10.658186 3.291391 0.0 0.0 0.0 0.0 9.556360293196178 0.0 0.0 0.0 12.861161416213427 0.0 0.0 0.0 0.0 0.0 -32.705004 0.0 3.184731 -4.668956 0.0 0.0 0.0 0.0 0.0 0.0 0.0 0.0 -90.0 0.0 0.0 0.0 0.0 0.0 -90.0 0.0 0.0 0.0 
0 0 0 0.0 0.0 0.0 0.0 0.0 0.0 0.0 -1.7240148110273594 0.0 0.0 0.0 11.04956126648631 0.0 0.0 0.0 0.0 0.0 -27.625854 0.0 -11.008422 3.26178 0.0 0.0 0.0 0.0 9.233180905461097 0.0 0.0 0.0 12.016032306497316 0.0 0.0 0.0 0.0 0.0 -31.669978 0.0 3.157787 -6.146866 0.0 0.0 0.0 0.0 0.0 0.0 0.0 0.0 -90.0 0.0 0.0 0.0 0.0 0.0 -90.0 0.0 0.0 0.0 
0 0 0 0.0 0.0 0.0 0.0 0.0 0.0 0.0 -1.9052029684650336 0.0 0.0 0.0 11.472156721495846 0.0 0.0 0.0 0.0 0.0 -28.653383 0.0 -11.329912 3.192342 0.0 0.0 0.0 0.0 8.935198378400784 0.0 0.0 0.0 11.314759895638323 0.0 0.0 0.0 0.0 0.0 -30.768873 0.0 3.055691 -7.537639 0.0 0.0 0.0 0.0 0.0 0.0 0.0 0.0 -90.0 0.0 0.0 0.0 0.0 0.0 -90.0 0.0 0.0 0.0 
0 0 0 0.0 0.0 0.0 0.0 0.0 0.0 0.0 -2.094943643038775 0.0 0.0 0.0 11.942842537604514 0.0 0.0 0.0 0.0 0.0 -29.73127 0.0 -11.6244 3.078076 0.0 0.0 0.0 0.0 8.66195765017089 0.0 0.0 0.0 10.73600335500976 0.0 0.0 0.0 0.0 0.0 -30.011358 0.0 2.856079 -8.807399 0.0 0.0 0.0 0.0 0.0 0.0 0.0 0.0 -90.0 0.0 0.0 0.0 0.0 0.0 -90.0 0.0 0.0 0.0 
0 0 0 0.0 0.0 0.0 0.0 0.0 0.0 0.0 -2.2914732396713617 0.0 0.0 0.0 12.47462976207343 0.0 0.0 0.0 0.0 0.0 -30.900191 0.0 -11.903948 3.037485 0.0 0.0 0.0 0.0 8.411561482758472 0.0 0.0 0.0 10.256299019057447 0.0 0.0 0.0 0.0 0.0 -29.377525 0.0 2.512223 -9.77005 0.0 0.0 0.0 0.0 0.0 0.0 0.0 0.0 -90.0 0.0 0.0 0.0 0.0 0.0 -90.0 0.0 0.0 0.0 
0 0 0 0.0 0.0 0.0 0.0 0.0 0.0 0.0 -2.4778624065371986 0.0 0.0 0.0 13.057058545749506 0.0 0.0 0.0 0.0 0.0 -32.148683 0.0 -12.102282 3.037932 0.0 0.0 0.0 0.0 8.195205461951517 0.0 0.0 0.0 9.872508534762392 0.0 0.0 0.0 0.0 0.0 -28.876976 0.0 2.079158 -10.445955 0.0 0.0 0.0 0.0 0.0 0.0 0.0 0.0 -90.0 0.0 0.0 0.0 0.0 0.0 -90.0 0.0 0.0 0.0 
0 0 0 0.0 0.0 0.0 0.0 0.0 0.0 0.0 -2.671136568503087 0.0 0.0 0.0 13.72002812043329 0.0 0.0 0.0 0.0 0.0 -33.512128 0.0 -12.187472 3.266623 0.0 0.0 0.0 0.0 8.008135276354551 0.0 0.0 0.0 9.575864925414683 0.0 0.0 0.0 0.0 0.0 -28.483107 0.0 1.654322 -10.911914 0.0 0.0 0.0 0.0 0.0 0.0 0.0 0.0 -90.0 0.0 0.0 0.0 0.0 0.0 -90.0 0.0 0.0 0.0 
0 0 0 0.0 0.0 0.0 0.0 0.0 0.0 0.0 -2.879703571855245 0.0 0.0 0.0 14.478044794034478 0.0 0.0 0.0 0.0 0.0 -35.006758 0.0 -12.106348 3.843037 0.0 0.0 0.0 0.0 7.850098272351929 0.0 0.0 0.0 9.339999604760992 0.0 0.0 0.0 0.0 0.0 -28.153328 0.0 1.257316 -11.287246 0.0 0.0 0.0 0.0 0.0 0.0 0.0 0.0 -90.0 0.0 0.0 0.0 0.0 0.0 -90.0 0.0 0.0 0.0 
0 0 0 0.0 0.0 0.0 0.0 0.0 0.0 0.0 -3.0936964252040156 0.0 0.0 0.0 15.363990350178023 0.0 0.0 0.0 0.0 0.0 -36.700965 0.0 -11.855776 4.789693 0.0 0.0 0.0 0.0 7.7574900539090805 0.0 0.0 0.0 9.1232771535101 0.0 0.0 0.0 0.0 0.0 -27.798164 0.0 1.044241 -11.428984 0.0 0.0 0.0 0.0 0.0 0.0 0.0 0.0 -90.0 0.0 0.0 0.0 0.0 0.0 -90.0 0.0 0.0 0.0 
0 0 0 0.0 0.0 0.0 0.0 0.0 0.0 0.0 -3.3208854334949365 0.0 0.0 0.0 16.386409262965703 0.0 0.0 0.0 0.0 0.0 -38.596459 0.0 -11.402438 6.058103 0.0 0.0 0.0 0.0 7.720457429978282 0.0 0.0 0.0 8.913659173207495 0.0 0.0 0.0 0.0 0.0 -27.375419 0.0 0.944893 -11.300758 0.0 0.0 0.0 0.0 0.0 0.0 0.0 0.0 -90.0 0.0 0.0 0.0 0.0 0.0 -90.0 0.0 0.0 0.0 
0 0 0 0.0 0.0 0.0 0.0 0.0 0.0 0.0 -3.5923731978483318 0.0 0.0 0.0 17.541619238581603 0.0 0.0 0.0 0.0 0.0 -40.682278 0.0 -10.844849 7.621798 0.0 0.0 0.0 0.0 7.707340140148673 0.0 0.0 0.0 8.68730096752298 0.0 0.0 0.0 0.0 0.0 -26.854941 0.0 0.89794 -10.999521 0.0 0.0 0.0 0.0 0.0 0.0 0.0 0.0 -90.0 0.0 0.0 0.0 0.0 0.0 -90.0 0.0 0.0 0.0 
0 0 0 0.0 0.0 0.0 0.0 0.0 0.0 0.0 -3.9081362809939577 0.0 0.0 0.0 18.80528026559759 0.0 0.0 0.0 0.0 0.0 -42.915917 0.0 -10.218108 9.356576 0.0 0.0 0.0 0.0 7.708779192737097 0.0 0.0 0.0 8.437984175099682 0.0 0.0 0.0 0.0 0.0 -26.24099 0.0 0.840665 -10.559639 0.0 0.0 0.0 0.0 0.0 0.0 0.0 0.0 -90.0 0.0 0.0 0.0 0.0 0.0 -90.0 0.0 0.0 0.0 
0 0 0 0.0 0.0 0.0 0.0 0.0 0.0 0.0 -4.248195882138901 0.0 0.0 0.0 20.152074732344126 0.0 0.0 0.0 0.0 0.0 -45.243666 0.0 -9.44038 11.388531 0.0 0.0 0.0 0.0 7.697839146868702 0.0 0.0 0.0 8.167847711385605 0.0 0.0 0.0 0.0 0.0 -25.558143 0.0 0.70618 -10.085754 0.0 0.0 0.0 0.0 0.0 0.0 0.0 0.0 -90.0 0.0 0.0 0.0 0.0 0.0 -90.0 0.0 0.0 0.0 
0 0 0 0.0 0.0 0.0 0.0 0.0 0.0 0.0 -4.611981947012822 0.0 0.0 0.0 21.565425488572497 0.0 0.0 0.0 0.0 0.0 -47.635531 0.0 -8.4998 13.672406 0.0 0.0 0.0 0.0 7.673954684194143 0.0 0.0 0.0 7.932910330477275 0.0 0.0 0.0 0.0 0.0 -24.913672 0.0 0.526807 -9.65148 0.0 0.0 0.0 0.0 0.0 0.0 0.0 0.0 -90.0 0.0 0.0 0.0 0.0 0.0 -90.0 0.0 0.0 0.0 
0 0 0 0.0 0.0 0.0 0.0 0.0 0.0 0.0 -4.998630954810764 0.0 0.0 0.0 23.011502811611543 0.0 0.0 0.0 0.0 0.0 -50.062585 0.0 -7.523509 15.962338 0.0 0.0 0.0 0.0 7.651306164855541 0.0 0.0 0.0 7.731328690050013 0.0 0.0 0.0 0.0 0.0 -24.325169 0.0 0.357365 -9.248593 0.0 0.0 0.0 0.0 0.0 0.0 0.0 0.0 -90.0 0.0 0.0 0.0 0.0 0.0 -90.0 0.0 0.0 0.0 
0 0 0 0.0 0.0 0.0 0.0 0.0 0.0 0.0 -5.3732608734079434 0.0 0.0 0.0 24.50898654880537 0.0 0.0 0.0 0.0 0.0 -52.542131 0.0 -6.56034 18.039537 0.0 0.0 0.0 0.0 7.640989098898942 0.0 0.0 0.0 7.605130928802484 0.0 0.0 0.0 0.0 0.0 -23.851266 0.0 0.238555 -8.865245 0.0 0.0 0.0 0.0 0.0 0.0 0.0 0.0 -90.0 0.0 0.0 0.0 0.0 0.0 -90.0 0.0 0.0 0.0 
0 0 0 0.0 0.0 0.0 0.0 0.0 0.0 0.0 -5.748177688507695 0.0 0.0 0.0 26.015990328404218 0.0 0.0 0.0 0.0 0.0 -55.038538 0.0 -5.685148 19.949675 0.0 0.0 0.0 0.0 7.639757643500957 0.0 0.0 0.0 7.516972137803446 0.0 0.0 0.0 0.0 0.0 -23.456043 0.0 0.170147 -8.529427 0.0 0.0 0.0 0.0 0.0 0.0 0.0 0.0 -90.0 0.0 0.0 0.0 0.0 0.0 -90.0 0.0 0.0 0.0 
0 0 0 0.0 0.0 0.0 0.0 0.0 0.0 0.0 -6.153398718590665 0.0 0.0 0.0 27.51997297278093 0.0 0.0 0.0 0.0 0.0 -57.535304 0.0 -4.925148 21.740908 0.0 0.0 0.0 0.0 7.637862141231238 0.0 0.0 0.0 7.457651080718532 0.0 0.0 0.0 0.0 0.0 -23.129382 0.0 0.151307 -8.226034 0.0 0.0 0.0 0.0 0.0 0.0 0.0 0.0 -90.0 0.0 0.0 0.0 0.0 0.0 -90.0 0.0 0.0 0.0 
